:SAMPLES-PER-SECOND 30
:FULLY-SPECIFIED
:DEGREES
34
root  -34.6732 18.6991 1.63933 -140.946 72.1257 168.766
RightUpLeg  -63.114 11.025 7.98927
RightLeg  120.56 5.12738 10.5276
RightFoot  -20.9771 -1.00961 -14.5867
RightToes  -7.56701e-010 -1.59028e-015 9.93923e-017
Spine  61.1951 -4.27488 4.94488
Spine1  -4.89468 -3.33439 14.0698
HEad  -56.2869 1.23881 5.54544
LeftShoulder1  9.93923e-017 0 1.22299e-017
LeftArm  12.7904 -27.2099 -76.9625
LeftForeArm  -92.495 -66.1839 140.116
LeftHand  1.28258 7.8824 24.5753
RightShoulder  1.98785e-016 -4.96962e-017 1.55301e-017
RightArm  -26.2191 66.2438 40.4311
RightForeArm  -14.6476 39.0543 -36.6248
RightHand  2.92217 -15.0368 -19.309
LeftUpLeg  -21.9363 -12.4155 19.5328
LeftLeg  66.4669 -15.5936 -8.70204
LeftFoot  14.9524 1.07081 -4.05338
LeftToes  1.17689e-009 -8.96121e-011 5.75302e-011
35
root  -34.0006 19.0273 2.25442 -150.872 72.714 159.91
RightUpLeg  -59.0822 10.9663 8.04745
RightLeg  117.229 7.00274 8.39224
RightFoot  -20.3592 -1.18507 -18.4265
RightToes  -7.56701e-010 -1.59028e-015 9.93923e-017
Spine  60.6362 -3.84212 2.70213
Spine1  -5.5006 -4.21138 13.6148
HEad  -53.9418 1.73951 4.97793
LeftShoulder1  9.93923e-017 0 1.22299e-017
LeftArm  13.0674 -24.4453 -76.8784
LeftForeArm  -77.4313 -69.9977 122.814
LeftHand  0.537969 5.97201 27.5546
RightShoulder  1.98785e-016 -4.96962e-017 1.55301e-017
RightArm  -13.9883 64.3443 55.3106
RightForeArm  -9.04427 35.8515 -33.9319
RightHand  3.18323 -15.4308 -21.0909
LeftUpLeg  -24.3089 -10.6662 17.6028
LeftLeg  71.4364 -14.2814 -6.56748
LeftFoot  12.0075 0.767117 -3.2404
LeftToes  1.17689e-009 -8.96121e-011 5.75302e-011
36
root  -33.4533 19.385 2.92001 -163.824 72.4176 148.466
RightUpLeg  -55.0193 9.82725 7.95787
RightLeg  114.31 9.21898 4.70357
RightFoot  -21.2694 -1.39951 -19.3958
RightToes  -7.56701e-010 -1.59028e-015 9.93923e-017
Spine  60.2366 -3.23176 0.235413
Spine1  -6.40073 -4.92321 12.8327
HEad  -51.4606 1.07285 5.67953
LeftShoulder1  9.93923e-017 0 1.22299e-017
LeftArm  16.6268 -23.2708 -78.3505
LeftForeArm  -50.7944 -71.4181 93.7292
LeftHand  -0.0985378 4.59509 30.6156
RightShoulder  1.98785e-016 -4.96962e-017 1.55301e-017
RightArm  -5.98829 60.3996 65.2333
RightForeArm  -3.19441 31.7411 -30.7877
RightHand  3.61605 -16.0955 -23.6441
LeftUpLeg  -27.4699 -9.43256 15.2598
LeftLeg  78.0135 -13.4258 -4.96888
LeftFoot  9.03014 0.546895 -2.62065
LeftToes  1.17689e-009 -8.96121e-011 5.75302e-011
37
root  -32.9673 19.7505 3.60291 -176.509 70.7799 137.928
RightUpLeg  -50.6876 8.26922 7.44337
RightLeg  111.688 10.8501 1.32764
RightFoot  -22.1615 -1.54948 -19.339
RightToes  -7.56701e-010 -1.59028e-015 9.93923e-017
Spine  59.8979 -2.60253 -1.84073
Spine1  -6.31382 -5.41168 11.6857
HEad  -49.9 -0.329242 7.54803
LeftShoulder1  9.93923e-017 0 1.22299e-017
LeftArm  21.9349 -23.4213 -81.2414
LeftForeArm  -24.5038 -67.5946 65.1022
LeftHand  -0.7014 3.45378 33.6838
RightShoulder  1.98785e-016 -4.96962e-017 1.55301e-017
RightArm  -3.06493 56.3152 68.4187
RightForeArm  -0.578643 27.3132 -27.5737
RightHand  4.28 -16.9438 -27.4559
LeftUpLeg  -31.2298 -8.59602 13.2369
LeftLeg  85.4781 -13.0479 -5.09917
LeftFoot  4.87754 0.490448 -2.98851
LeftToes  1.17689e-009 -8.96121e-011 5.75302e-011
38
root  -32.4409 20.0649 4.2741 173.522 68.1341 130.706
RightUpLeg  -45.7643 6.52848 6.76805
RightLeg  109.063 11.5338 -0.450143
RightFoot  -22.2062 -1.60764 -19.9607
RightToes  -7.56701e-010 -1.59028e-015 9.93923e-017
Spine  59.2851 -1.9078 -3.54701
Spine1  -4.0461 -5.76787 10.1566
HEad  -50.5697 -1.60173 9.78859
LeftShoulder1  9.93923e-017 0 1.22299e-017
LeftArm  26.4434 -24.4505 -83.5097
LeftForeArm  -14.7442 -63.2487 52.1896
LeftHand  -0.694563 3.48838 33.9153
RightShoulder  1.98785e-016 -4.96962e-017 1.55301e-017
RightArm  -2.96888 53.4483 67.513
RightForeArm  -0.817354 23.123 -24.7121
RightHand  5.0042 -17.7833 -31.1742
LeftUpLeg  -35.7029 -7.93384 11.9035
LeftLeg  93.4021 -12.4921 -7.03394
LeftFoot  -1.19952 0.480191 -4.58399
LeftToes  1.17689e-009 -8.96121e-011 5.75302e-011
39
root  -31.9003 20.2942 4.89469 166.098 65.2441 126.142
RightUpLeg  -40.8246 4.63032 6.1006
RightLeg  106.562 11.7971 -1.47725
RightFoot  -21.8302 -1.60985 -20.8291
RightToes  -7.56701e-010 -1.59028e-015 9.93923e-017
Spine  58.6234 -1.15454 -4.97252
Spine1  -1.08399 -5.83953 8.17776
HEad  -52.6623 -3.01694 11.8852
LeftShoulder1  9.93923e-017 0 1.22299e-017
LeftArm  29.2062 -25.6446 -83.7202
LeftForeArm  -19.683 -63.2607 51.0828
LeftHand  0.350743 5.61647 28.4054
RightShoulder  1.98785e-016 -4.96962e-017 1.55301e-017
RightArm  -3.80627 50.7787 65.5665
RightForeArm  -1.00919 19.6232 -22.2522
RightHand  5.57708 -18.431 -33.7399
LeftUpLeg  -41.363 -7.21139 10.9488
LeftLeg  101.367 -11.2291 -9.82815
LeftFoot  -7.82275 0.284925 -6.18747
LeftToes  1.17689e-009 -8.96121e-011 5.75302e-011
40
root  -31.4136 20.4601 5.39968 160.202 62.6565 122.504
RightUpLeg  -36.8741 2.88481 5.09305
RightLeg  104.569 12.0522 -2.64345
RightFoot  -21.2448 -1.51905 -21.0616
RightToes  -7.56701e-010 -1.59028e-015 9.93923e-017
Spine  58.2444 -0.528923 -5.87598
Spine1  0.398301 -5.42987 5.72516
HEad  -54.1524 -5.58194 13.844
LeftShoulder1  9.93923e-017 0 1.22299e-017
LeftArm  30.8521 -26.6889 -82.2039
LeftForeArm  -35.0026 -66.002 56.1156
LeftHand  1.7483 9.6279 17.9793
RightShoulder  1.98785e-016 -4.96962e-017 1.55301e-017
RightArm  -6.49136 47.0921 63.6563
RightForeArm  1.25797 17.1028 -19.32
RightHand  5.98015 -18.8598 -35.4441
LeftUpLeg  -48.5445 -6.21416 9.66314
LeftLeg  108.475 -9.38492 -12.2936
LeftFoot  -13.4123 -0.036117 -6.48636
LeftToes  1.17689e-009 -8.96121e-011 5.75302e-011
41
root  -30.9639 20.6026 5.76178 154.513 60.4129 118.091
RightUpLeg  -34.1106 1.84099 3.01568
RightLeg  103.126 12.2126 -3.57572
RightFoot  -20.4607 -1.35873 -20.8578
RightToes  -7.56701e-010 -1.59028e-015 9.93923e-017
Spine  57.6515 0.164101 -6.74234
Spine1  0.915126 -4.6887 2.98366
HEad  -54.4578 -9.26294 15.8711
LeftShoulder1  9.93923e-017 0 1.22299e-017
LeftArm  32.0126 -28.0455 -79.9667
LeftForeArm  -49.4697 -67.8127 59.6605
LeftHand  2.29368 13.3647 6.81397
RightShoulder  1.98785e-016 -4.96962e-017 1.55301e-017
RightArm  -11.3108 42.9461 61.6431
RightForeArm  4.99891 15.12 -16.1422
RightHand  6.29976 -19.1592 -36.8348
LeftUpLeg  -57.1429 -4.87568 7.00211
LeftLeg  113.735 -7.60231 -13.8762
LeftFoot  -17.6464 -0.28772 -6.37801
LeftToes  1.17689e-009 -8.96121e-011 5.75302e-011
42
root  -30.5437 20.7051 5.93416 151.376 58.6213 115.465
RightUpLeg  -32.1911 1.08358 1.41571
RightLeg  101.699 12.2495 -4.20746
RightFoot  -19.9152 -1.24982 -20.7279
RightToes  -7.56701e-010 -1.59028e-015 9.93923e-017
Spine  55.373 0.700507 -6.75963
Spine1  3.18109 -3.57396 0.712415
HEad  -54.898 -13.3801 17.7436
LeftShoulder1  9.93923e-017 0 1.22299e-017
LeftArm  33.0331 -30.2366 -78.2395
LeftForeArm  -51.1474 -67.0861 56.3877
LeftHand  1.99862 14.6306 -1.38499
RightShoulder  1.98785e-016 -4.96962e-017 1.55301e-017
RightArm  -15.8369 39.7009 58.7334
RightForeArm  7.19598 13.3065 -13.8721
RightHand  6.5667 -19.4118 -37.9273
LeftUpLeg  -68.0088 -3.90847 3.8095
LeftLeg  117.052 -6.37953 -14.5783
LeftFoot  -20.2271 -0.456657 -6.66937
LeftToes  1.17689e-009 -8.96121e-011 5.75302e-011
43
root  -30.1957 20.7349 5.89302 152.791 57.2573 118.02
RightUpLeg  -29.7025 -0.818662 2.23754
RightLeg  99.7677 12.3274 -5.38284
RightFoot  -20.1681 -1.28704 -20.5837
RightToes  -7.56701e-010 -1.59028e-015 9.93923e-017
Spine  52.8123 -0.499059 -4.27758
Spine1  6.31012 -2.7386 -1.55393
HEad  -55.2701 -16.9416 19.3657
LeftShoulder1  9.93923e-017 0 1.22299e-017
LeftArm  33.7195 -32.4723 -76.0595
LeftForeArm  -44.4038 -64.6593 50.5126
LeftHand  1.67019 13.9989 -5.07885
RightShoulder  1.98785e-016 -4.96962e-017 1.55301e-017
RightArm  -18.3565 37.3321 56.4539
RightForeArm  7.81076 11.8114 -12.4657
RightHand  6.80568 -19.6655 -38.7691
LeftUpLeg  -80.4556 -4.72966 1.5302
LeftLeg  118.606 -6.03555 -14.3737
LeftFoot  -20.9915 -0.559535 -7.51541
LeftToes  1.17689e-009 -8.96121e-011 5.75302e-011
44
root  -29.7503 20.7814 5.76259 151.749 57.4042 120.975
RightUpLeg  -23.5318 -1.38025 3.53113
RightLeg  97.008 12.3008 -7.01449
RightFoot  -20.6225 -1.35311 -20.3353
RightToes  -7.56701e-010 -1.59028e-015 9.93923e-017
Spine  53.0939 -0.54649 -1.6134
Spine1  9.22 -1.36123 -3.69574
HEad  -55.191 -19.7833 20.3485
LeftShoulder1  9.93923e-017 0 1.22299e-017
LeftArm  33.384 -33.7032 -73.5251
LeftForeArm  -39.1304 -62.1207 45.746
LeftHand  1.60662 13.4822 -5.28075
RightShoulder  1.98785e-016 -4.96962e-017 1.55301e-017
RightArm  -19.4429 35.5418 55.0529
RightForeArm  7.98249 10.3794 -11.1421
RightHand  7.07753 -19.9565 -39.6718
LeftUpLeg  -88.3585 -5.41225 -1.49782
LeftLeg  117.429 -7.16125 -12.9499
LeftFoot  -20.9782 -0.629013 -8.60227
LeftToes  1.17689e-009 -8.96121e-011 5.75302e-011
45
root  -29.3388 20.2551 4.99154 168.475 62.7421 135.812
RightUpLeg  -24.9342 -0.152913 13.5296
RightLeg  94.7302 12.3 -9.10411
RightFoot  -20.8808 -1.39644 -20.2924
RightToes  -7.56701e-010 -1.59028e-015 9.93923e-017
Spine  43.1505 -3.90073 9.24647
Spine1  13.6294 2.1283 -10.1586
HEad  -53.7791 -21.6525 20.8374
LeftShoulder1  9.93923e-017 0 1.22299e-017
LeftArm  31.7685 -32.3554 -70.4371
LeftForeArm  -38.9989 -60.3115 42.504
LeftHand  1.64186 13.3524 -4.42134
RightShoulder  1.98785e-016 -4.96962e-017 1.55301e-017
RightArm  -19.5988 33.6787 55.4755
RightForeArm  8.3037 8.59738 -9.76763
RightHand  7.37702 -20.2677 -40.6468
LeftUpLeg  -106.23 -4.87533 3.00308
LeftLeg  117.54 -8.20089 -10.746
LeftFoot  -20.5162 -0.682293 -9.98151
LeftToes  1.17689e-009 -8.96121e-011 5.75302e-011
